#!OML:ASF H:\Male1\Project 1\Capture day 1\Session 1\Male1.ASF
:FULLY-SPECIFIED
:DEGREES
523
root -22.448 15.1159 6.17528 181.102 -0.469134 -178.738
lowerback 10.3346 0.790562 2.29536
upperback 4.18486 0.873329 0.298833
thorax -1.40378 0.281458 -1.07607
lowerneck -5.93792 1.4531 5.20132
upperneck -3.36505 1.2534 -8.52796
head 0.0716738 0.40326 -3.66584
rclavicle 2.01269e-015 6.06293e-015
rhumerus -36.1704 -0.383387 -79.131
rradius 32.3636
rwrist -18.0835
rhand -20.8959 5.81154
rfingers 7.12502
rthumb 5.47489 -24.0977
lclavicle 2.01269e-015 6.06293e-015
lhumerus -46.65 24.4484 63.8307
lradius 22.7923
lwrist -9.45565
lhand -15.1644 10.1428
lfingers 7.12502
lthumb 11.0062 39.8343
rfemur -12.3956 25.1998 23.9823
rtibia 33.2073
rfoot -24.8601 -15.05
rtoes -18.2498
lfemur -11.0967 -19.7423 -21.3869
ltibia 31.3626
lfoot -20.5701 15.3625
ltoes -11.4707
524
root -22.4586 15.1158 6.16946 181.038 -0.706045 -179.167
lowerback 10.2318 0.75492 1.95328
upperback 4.18379 0.794155 0.144023
thorax -1.35576 0.243515 -1.03402
lowerneck -5.84809 1.41714 5.08127
upperneck -3.43088 1.21581 -8.36588
head 0.0290852 0.390489 -3.58653
rclavicle 1.17283e-014 7.95139e-016
rhumerus -36.1014 -0.515877 -79.1597
rradius 32.3366
rwrist -17.6902
rhand -20.6205 6.12345
rfingers 7.12502
rthumb 5.74077 -23.7788
lclavicle 1.17283e-014 7.95139e-016
lhumerus -46.0351 24.3143 64.5063
lradius 22.8489
lwrist -9.42399
lhand -16.8782 9.31148
lfingers 7.12502
lthumb 9.35286 39.084
rfemur -12.3017 25.0611 23.4499
rtibia 33.2358
rfoot -25.1589 -14.7811
rtoes -16.9996
lfemur -10.8997 -19.9894 -21.9683
ltibia 31.1502
lfoot -20.4515 15.3952
ltoes -11.323
525
root -22.4584 15.1165 6.1656 180.944 -1.29985 -179.354
lowerback 10.1397 0.666252 1.72832
upperback 4.2293 0.651705 0.0983756
thorax -1.26581 0.171877 -0.938022
lowerneck -6.00919 1.32584 5.12987
upperneck -3.31851 1.09293 -8.3535
head 0.0845844 0.325122 -3.59422
rclavicle 1.10822e-014 1.83876e-015
rhumerus -36.0107 -0.712888 -79.2402
rradius 32.4407
rwrist -17.6374
rhand -20.8636 5.66592
rfingers 7.12502
rthumb 5.50607 -24.2426
lclavicle 1.10822e-014 1.83876e-015
lhumerus -44.8014 23.5536 65.9351
lradius 23.0668
lwrist -9.05404
lhand -18.1956 10.0629
lfingers 7.12502
lthumb 8.08159 39.8884
rfemur -12.0483 24.9518 23.385
rtibia 33.2675
rfoot -25.4116 -15.2499
rtoes -16.9672
lfemur -10.7329 -20.2803 -22.1818
ltibia 30.9861
lfoot -20.3957 15.0531
ltoes -10.9376
526
root -22.4667 15.1143 6.1709 180.804 -1.61348 -179.345
lowerback 10.213 0.607612 1.74228
upperback 4.24174 0.574378 0.128948
thorax -1.29532 0.131847 -0.906303
lowerneck -5.92255 1.26887 5.05748
upperneck -3.40714 1.0137 -8.37184
head 0.0346827 0.287027 -3.58843
rclavicle 3.00662e-015 9.0447e-015
rhumerus -35.6989 -0.791659 -79.2941
rradius 32.2566
rwrist -17.5863
rhand -20.4644 6.10491
rfingers 7.12502
rthumb 5.89143 -23.7932
lclavicle 3.00662e-015 9.0447e-015
lhumerus -43.5324 22.5394 67.6613
lradius 23.3471
lwrist -8.55832
lhand -19.0976 10.401
lfingers 7.12502
lthumb 7.21097 40.2581
rfemur -11.8449 24.8012 23.4476
rtibia 33.2459
rfoot -25.4665 -15.4475
rtoes -17.0743
lfemur -10.5966 -20.4768 -22.2459
ltibia 30.9393
lfoot -20.3511 14.9322
ltoes -10.7742
527
root -22.4763 15.1143 6.17439 180.752 -1.92386 -179.205
lowerback 10.1755 0.566088 1.98902
upperback 4.23249 0.544448 0.120821
thorax -1.28158 0.120629 -1.04992
lowerneck -5.76956 1.18228 5.08563
upperneck -3.60309 0.884653 -8.36671
head -0.0643604 0.225425 -3.59518
rclavicle -5.10628e-015 2.23633e-015
rhumerus -34.9899 -1.33296 -79.2936
rradius 31.3983
rwrist -17.0165
rhand -20.2587 6.26885
rfingers 7.12502
rthumb 6.09005 -23.6236
lclavicle -5.10628e-015 2.23633e-015
lhumerus -42.0888 21.0003 69.5741
lradius 23.6705
lwrist -8.09617
lhand -19.6593 10.5324
lfingers 7.12502
lthumb 6.66877 40.4074
rfemur -11.7462 24.589 23.5905
rtibia 33.2052
rfoot -25.4525 -15.6055
rtoes -17.248
lfemur -10.6221 -20.5866 -22.1338
ltibia 30.9796
lfoot -20.3014 14.7253
ltoes -10.7099
528
root -22.4853 15.1138 6.17844 180.709 -2.1443 -179.034
lowerback 10.1312 0.593865 2.32411
upperback 4.21962 0.614405 0.0769044
thorax -1.2626 0.160684 -1.29112
lowerneck -5.69164 1.0458 5.04172
upperneck -3.7049 0.702544 -8.23998
head -0.125289 0.138504 -3.54607
rclavicle -1.29459e-014 -5.11871e-015
rhumerus -34.8286 -1.41792 -79.5343
rradius 31.528
rwrist -16.848
rhand -20.1918 5.81535
rfingers 7.12502
rthumb 6.15461 -24.0752
lclavicle -1.29459e-014 -5.11871e-015
lhumerus -40.1735 19.0861 71.6354
lradius 23.6989
lwrist -7.98789
lhand -19.8019 10.4179
lfingers 7.12502
lthumb 6.53102 40.2972
rfemur -11.6839 24.3976 23.7594
rtibia 33.1569
rfoot -25.3691 -15.7269
rtoes -17.6966
lfemur -10.6823 -20.6251 -21.9785
ltibia 31.0561
lfoot -20.2583 14.5809
ltoes -10.886
529
root -22.4888 15.1072 6.18903 180.536 -2.21607 -179.108
lowerback 10.2856 0.713789 2.31991
upperback 4.22472 0.772066 -0.0262898
thorax -1.33397 0.237987 -1.41427
lowerneck -5.75064 0.903422 5.0028
upperneck -3.57239 0.533763 -8.02557
head -0.0863956 0.0585296 -3.46684
rclavicle 4.11236e-015 3.8763e-015
rhumerus -34.6861 -1.47024 -79.8126
rradius 31.6892
rwrist -16.8145
rhand -20.1147 5.77366
rfingers 7.12502
rthumb 6.22907 -24.1148
lclavicle 4.11236e-015 3.8763e-015
lhumerus -37.9199 16.2968 74.0436
lradius 23.6626
lwrist -7.43386
lhand -20.5295 10.0606
lfingers 7.12502
lthumb 5.8286 39.9605
rfemur -11.5211 24.3556 23.7441
rtibia 33.1208
rfoot -25.2183 -15.8926
rtoes -18.2546
lfemur -10.5694 -20.9636 -22.1658
ltibia 31.1525
lfoot -20.2905 14.8804
ltoes -10.9477
